<mxfile host="app.diagrams.net" agent="Mozilla/5.0 (Macintosh; Intel Mac OS X 10_15_7) AppleWebKit/537.36 (KHTML, like Gecko) Chrome/135.0.0.0 Safari/537.36 Edg/135.0.0.0" version="26.2.12">
  <diagram name="Page-1" id="Eb1vPwtf1Vk5tp4lJQ05">
    <mxGraphModel dx="988" dy="1111" grid="0" gridSize="10" guides="1" tooltips="1" connect="1" arrows="1" fold="1" page="0" pageScale="1" pageWidth="850" pageHeight="1100" math="0" shadow="0">
      <root>
        <mxCell id="0" />
        <mxCell id="1" parent="0" />
        <mxCell id="TeRUdmEj1hgBENlIjTRt-3" style="edgeStyle=none;curved=1;rounded=0;orthogonalLoop=1;jettySize=auto;html=1;entryX=0.5;entryY=0;entryDx=0;entryDy=0;fontSize=12;startSize=8;endSize=8;" edge="1" parent="1" source="TeRUdmEj1hgBENlIjTRt-1" target="TeRUdmEj1hgBENlIjTRt-2">
          <mxGeometry relative="1" as="geometry" />
        </mxCell>
        <mxCell id="TeRUdmEj1hgBENlIjTRt-1" value="Begin" style="ellipse;whiteSpace=wrap;html=1;" vertex="1" parent="1">
          <mxGeometry x="157" y="-140" width="90" height="49" as="geometry" />
        </mxCell>
        <mxCell id="TeRUdmEj1hgBENlIjTRt-5" style="edgeStyle=none;curved=1;rounded=0;orthogonalLoop=1;jettySize=auto;html=1;entryX=0.5;entryY=0;entryDx=0;entryDy=0;fontSize=12;startSize=8;endSize=8;" edge="1" parent="1" source="TeRUdmEj1hgBENlIjTRt-2" target="TeRUdmEj1hgBENlIjTRt-4">
          <mxGeometry relative="1" as="geometry" />
        </mxCell>
        <mxCell id="TeRUdmEj1hgBENlIjTRt-2" value="Display Menu" style="rounded=0;whiteSpace=wrap;html=1;" vertex="1" parent="1">
          <mxGeometry x="167" y="-39" width="70" height="50" as="geometry" />
        </mxCell>
        <mxCell id="TeRUdmEj1hgBENlIjTRt-17" style="edgeStyle=orthogonalEdgeStyle;rounded=0;orthogonalLoop=1;jettySize=auto;html=1;entryX=0.5;entryY=0;entryDx=0;entryDy=0;fontSize=12;startSize=8;endSize=8;exitX=0.5;exitY=1;exitDx=0;exitDy=0;" edge="1" parent="1" source="TeRUdmEj1hgBENlIjTRt-4" target="TeRUdmEj1hgBENlIjTRt-10">
          <mxGeometry relative="1" as="geometry" />
        </mxCell>
        <mxCell id="TeRUdmEj1hgBENlIjTRt-18" style="edgeStyle=orthogonalEdgeStyle;rounded=0;orthogonalLoop=1;jettySize=auto;html=1;entryX=0.5;entryY=0;entryDx=0;entryDy=0;fontSize=12;startSize=8;endSize=8;exitX=0.5;exitY=1;exitDx=0;exitDy=0;" edge="1" parent="1" source="TeRUdmEj1hgBENlIjTRt-4" target="TeRUdmEj1hgBENlIjTRt-7">
          <mxGeometry relative="1" as="geometry" />
        </mxCell>
        <mxCell id="TeRUdmEj1hgBENlIjTRt-20" style="edgeStyle=orthogonalEdgeStyle;rounded=0;orthogonalLoop=1;jettySize=auto;html=1;entryX=0.5;entryY=0;entryDx=0;entryDy=0;fontSize=12;startSize=8;endSize=8;" edge="1" parent="1" source="TeRUdmEj1hgBENlIjTRt-4" target="TeRUdmEj1hgBENlIjTRt-8">
          <mxGeometry relative="1" as="geometry" />
        </mxCell>
        <mxCell id="TeRUdmEj1hgBENlIjTRt-21" style="edgeStyle=orthogonalEdgeStyle;rounded=0;orthogonalLoop=1;jettySize=auto;html=1;entryX=0.5;entryY=0;entryDx=0;entryDy=0;fontSize=12;startSize=8;endSize=8;exitX=0.5;exitY=1;exitDx=0;exitDy=0;" edge="1" parent="1" source="TeRUdmEj1hgBENlIjTRt-4" target="TeRUdmEj1hgBENlIjTRt-9">
          <mxGeometry relative="1" as="geometry">
            <Array as="points">
              <mxPoint x="202" y="171" />
              <mxPoint x="256" y="171" />
            </Array>
          </mxGeometry>
        </mxCell>
        <mxCell id="TeRUdmEj1hgBENlIjTRt-22" style="edgeStyle=orthogonalEdgeStyle;rounded=0;orthogonalLoop=1;jettySize=auto;html=1;entryX=0.5;entryY=0;entryDx=0;entryDy=0;fontSize=12;startSize=8;endSize=8;exitX=0.5;exitY=1;exitDx=0;exitDy=0;" edge="1" parent="1" source="TeRUdmEj1hgBENlIjTRt-4" target="TeRUdmEj1hgBENlIjTRt-11">
          <mxGeometry relative="1" as="geometry">
            <Array as="points">
              <mxPoint x="202" y="171" />
              <mxPoint x="366" y="171" />
            </Array>
          </mxGeometry>
        </mxCell>
        <mxCell id="TeRUdmEj1hgBENlIjTRt-23" style="edgeStyle=orthogonalEdgeStyle;rounded=0;orthogonalLoop=1;jettySize=auto;html=1;entryX=0.5;entryY=0;entryDx=0;entryDy=0;fontSize=12;startSize=8;endSize=8;exitX=0.5;exitY=1;exitDx=0;exitDy=0;" edge="1" parent="1" source="TeRUdmEj1hgBENlIjTRt-4" target="TeRUdmEj1hgBENlIjTRt-12">
          <mxGeometry relative="1" as="geometry">
            <Array as="points">
              <mxPoint x="202" y="171" />
              <mxPoint x="476" y="171" />
            </Array>
          </mxGeometry>
        </mxCell>
        <mxCell id="TeRUdmEj1hgBENlIjTRt-4" value="User choice" style="rhombus;whiteSpace=wrap;html=1;" vertex="1" parent="1">
          <mxGeometry x="162" y="62" width="80" height="80" as="geometry" />
        </mxCell>
        <mxCell id="TeRUdmEj1hgBENlIjTRt-26" style="edgeStyle=orthogonalEdgeStyle;rounded=0;orthogonalLoop=1;jettySize=auto;html=1;entryX=0.5;entryY=0;entryDx=0;entryDy=0;fontSize=12;startSize=8;endSize=8;exitX=0.5;exitY=1;exitDx=0;exitDy=0;" edge="1" parent="1" source="TeRUdmEj1hgBENlIjTRt-7" target="TeRUdmEj1hgBENlIjTRt-16">
          <mxGeometry relative="1" as="geometry" />
        </mxCell>
        <mxCell id="TeRUdmEj1hgBENlIjTRt-7" value="Add a&amp;nbsp;&lt;span style=&quot;background-color: transparent; color: light-dark(rgb(0, 0, 0), rgb(255, 255, 255));&quot;&gt;product&lt;/span&gt;" style="rounded=0;whiteSpace=wrap;html=1;" vertex="1" parent="1">
          <mxGeometry x="1" y="200" width="70" height="50" as="geometry" />
        </mxCell>
        <mxCell id="TeRUdmEj1hgBENlIjTRt-27" style="edgeStyle=orthogonalEdgeStyle;rounded=0;orthogonalLoop=1;jettySize=auto;html=1;entryX=0.5;entryY=0;entryDx=0;entryDy=0;fontSize=12;startSize=8;endSize=8;exitX=0.5;exitY=1;exitDx=0;exitDy=0;" edge="1" parent="1" source="TeRUdmEj1hgBENlIjTRt-8" target="TeRUdmEj1hgBENlIjTRt-16">
          <mxGeometry relative="1" as="geometry" />
        </mxCell>
        <mxCell id="TeRUdmEj1hgBENlIjTRt-8" value="Sell a product" style="rounded=0;whiteSpace=wrap;html=1;" vertex="1" parent="1">
          <mxGeometry x="111" y="200" width="70" height="50" as="geometry" />
        </mxCell>
        <mxCell id="TeRUdmEj1hgBENlIjTRt-28" style="edgeStyle=orthogonalEdgeStyle;rounded=0;orthogonalLoop=1;jettySize=auto;html=1;entryX=0.5;entryY=0;entryDx=0;entryDy=0;fontSize=12;startSize=8;endSize=8;exitX=0.5;exitY=1;exitDx=0;exitDy=0;" edge="1" parent="1" source="TeRUdmEj1hgBENlIjTRt-9" target="TeRUdmEj1hgBENlIjTRt-16">
          <mxGeometry relative="1" as="geometry" />
        </mxCell>
        <mxCell id="TeRUdmEj1hgBENlIjTRt-9" value="Restock a product" style="rounded=0;whiteSpace=wrap;html=1;" vertex="1" parent="1">
          <mxGeometry x="221" y="200" width="70" height="50" as="geometry" />
        </mxCell>
        <mxCell id="TeRUdmEj1hgBENlIjTRt-25" style="edgeStyle=orthogonalEdgeStyle;rounded=0;orthogonalLoop=1;jettySize=auto;html=1;entryX=0.5;entryY=0;entryDx=0;entryDy=0;fontSize=12;startSize=8;endSize=8;exitX=0.5;exitY=1;exitDx=0;exitDy=0;" edge="1" parent="1" source="TeRUdmEj1hgBENlIjTRt-10" target="TeRUdmEj1hgBENlIjTRt-16">
          <mxGeometry relative="1" as="geometry" />
        </mxCell>
        <mxCell id="TeRUdmEj1hgBENlIjTRt-10" value="View all products" style="rounded=0;whiteSpace=wrap;html=1;" vertex="1" parent="1">
          <mxGeometry x="-109" y="200" width="70" height="50" as="geometry" />
        </mxCell>
        <mxCell id="TeRUdmEj1hgBENlIjTRt-29" style="edgeStyle=orthogonalEdgeStyle;rounded=0;orthogonalLoop=1;jettySize=auto;html=1;entryX=0.5;entryY=0;entryDx=0;entryDy=0;fontSize=12;startSize=8;endSize=8;exitX=0.5;exitY=1;exitDx=0;exitDy=0;" edge="1" parent="1" source="TeRUdmEj1hgBENlIjTRt-11" target="TeRUdmEj1hgBENlIjTRt-16">
          <mxGeometry relative="1" as="geometry" />
        </mxCell>
        <mxCell id="TeRUdmEj1hgBENlIjTRt-11" value="Remove a product" style="rounded=0;whiteSpace=wrap;html=1;" vertex="1" parent="1">
          <mxGeometry x="331" y="197" width="70" height="50" as="geometry" />
        </mxCell>
        <mxCell id="TeRUdmEj1hgBENlIjTRt-24" style="edgeStyle=orthogonalEdgeStyle;rounded=0;orthogonalLoop=1;jettySize=auto;html=1;entryX=0.5;entryY=0;entryDx=0;entryDy=0;fontSize=12;startSize=8;endSize=8;exitX=0.5;exitY=1;exitDx=0;exitDy=0;" edge="1" parent="1" source="TeRUdmEj1hgBENlIjTRt-12" target="TeRUdmEj1hgBENlIjTRt-13">
          <mxGeometry relative="1" as="geometry">
            <Array as="points">
              <mxPoint x="476" y="416" />
              <mxPoint x="202" y="416" />
            </Array>
          </mxGeometry>
        </mxCell>
        <mxCell id="TeRUdmEj1hgBENlIjTRt-12" value="Exit application" style="rounded=0;whiteSpace=wrap;html=1;" vertex="1" parent="1">
          <mxGeometry x="441" y="200" width="70" height="50" as="geometry" />
        </mxCell>
        <mxCell id="TeRUdmEj1hgBENlIjTRt-13" value="End" style="ellipse;whiteSpace=wrap;html=1;" vertex="1" parent="1">
          <mxGeometry x="157" y="470" width="90" height="49" as="geometry" />
        </mxCell>
        <mxCell id="TeRUdmEj1hgBENlIjTRt-30" style="edgeStyle=orthogonalEdgeStyle;rounded=0;orthogonalLoop=1;jettySize=auto;html=1;entryX=0;entryY=0.5;entryDx=0;entryDy=0;fontSize=12;startSize=8;endSize=8;exitX=0;exitY=0.5;exitDx=0;exitDy=0;" edge="1" parent="1" source="TeRUdmEj1hgBENlIjTRt-16" target="TeRUdmEj1hgBENlIjTRt-2">
          <mxGeometry relative="1" as="geometry">
            <Array as="points">
              <mxPoint x="-138" y="379" />
              <mxPoint x="-138" y="-14" />
            </Array>
          </mxGeometry>
        </mxCell>
        <mxCell id="TeRUdmEj1hgBENlIjTRt-16" value="" style="ellipse;whiteSpace=wrap;html=1;aspect=fixed;" vertex="1" parent="1">
          <mxGeometry x="182" y="359" width="40" height="40" as="geometry" />
        </mxCell>
      </root>
    </mxGraphModel>
  </diagram>
</mxfile>
